# xmcd CD database file
#
# Track frame offsets:
#	150
#	16561
#	34284
#	49772
#	66734
#	79272
#	95584
#	107192
#	120219
#	133625
#	144298
#	162784
#
# Disc length: 2356 seconds
#
# Revision: 0
# Processed by: cddbd v1.5.2PL0 Copyright (c) Steve Scherf et al.
# Submitted via: CDex 1.51
#
DISCID=9b09320c
DTITLE=Get up and Dance wkshop nr.54 - Get up and dance wkshop nr.54
DYEAR=2007
DGENRE=Country
TTITLE0=A Cowboy And A Dancer
TTITLE1=Ticks
TTITLE2=A Place To Ruhn
TTITLE3=O'Sullivan march
TTITLE4=Texas Holdém
TTITLE5=No Good Reason
TTITLE6=38-21-34
TTITLE7=I Feel Lucky
TTITLE8=I feel Lucky x
TTITLE9=Jailhouse Creole
TTITLE10=Jailhouse Creole xx
TTITLE11=Celtic Reel x
EXTD=YEAR: 2007
EXTT0=
EXTT1=
EXTT2=
EXTT3=
EXTT4=
EXTT5=
EXTT6=
EXTT7=
EXTT8=
EXTT9=
EXTT10=
EXTT11=
PLAYORDER=
